
	<svg xmlns="http://www.w3.org/2000/svg" xmlns:xlink="http://www.w3.org/1999/xlink" version="1.1" width="512" height="512" viewBox="0 0 100 100">




            <g transform="
                    translate(50 50)
                    translate(0 0)  scale(1)  
                    translate(-50 -50)
                    ">


                <g transform="scale(0.3834590680732294) translate(-22.60799789428711 -20.71450424194336)" id="picture">
    <path fill="#39393a" d="M283.392 152.932q0-53.2-32.598-89.45-34.163-38.074-98.837-38.074-64.675 0-97.012 38.074-32.337 36.25-32.337 89.45 0 53.46 32.337 87.623 32.337 36.25 97.012 36.25 64.674 0 98.837-36.25 32.598-34.163 32.598-87.623z"/>
    <path fill="#ff8552" d="M110.22 99.064l43.148 86.392 43.413-86.392h22.5v105.873h-17.47v-41.291l1.588-44.467-43.149 85.758h-13.235l-43.678-85.546 1.853 44.255v41.29H87.719V99.065h22.5z"/>
</g>


            </g>


	</svg>
